<svg id="kity_svg_6" xmlns="http://www.w3.org/2000/svg" xmlns:xlink="http://www.w3.org/1999/xlink" version="1.1" width="1467" height="1296" style="background: rgb(251, 251, 251); visibility: visible;" viewBox="0 0 1467 1296"><defs id="kity_defs_7"><linearGradient id="kity_linearGradient_17" x1="0" y1="0" x2="0" y2="1"><stop id="kity_stop_18" offset="0" stop-color="rgb(255, 255, 255)"></stop><stop id="kity_stop_19" offset="1" stop-color="rgb(204, 204, 204)"></stop></linearGradient><marker id="kity_marker_2" orient="auto" refX="6" refY="0" viewBox="-7 -7 14 14" markerWidth="7" markerHeight="7" markerUnits="userSpaceOnUse"><path id="kity_path_3" fill="rgb(115, 191, 118)" stroke="none" d="M6,0A6,6,0,1,1,-6,0A6,6,0,1,1,6,0"></path></marker></defs><g id="kity_g_8"><g id="minder1" text-rendering="geometricPrecision"><g id="minder_connect_group1"><path id="kity_path_1323" fill="none" stroke="rgb(115, 191, 118)" stroke-width="1" d="M92.49999944865704,548.5000054687262A190,462,0,0,1,282.49999944865704,86.50000546872616"></path><path id="kity_path_1325" fill="none" stroke="rgb(115, 191, 118)" stroke-width="1" d="M460.49999944865704,86.50000546872616C480.49999944865704,86.50000546872616,480.49999944865704,30.500005468726158,500.49999944865704,30.500005468726158"></path><path id="kity_path_1327" fill="none" stroke="rgb(115, 191, 118)" stroke-width="1" d="M460.49999944865704,86.50000546872616C480.49999944865704,86.50000546872616,480.49999944865704,82.50000546872616,500.49999944865704,82.50000546872616"></path><path id="kity_path_1329" fill="none" stroke="rgb(115, 191, 118)" stroke-width="1" d="M460.49999944865704,86.50000546872616C480.49999944865704,86.50000546872616,480.49999944865704,143.50000546872616,500.49999944865704,143.50000546872616"></path><path id="kity_path_1331" fill="none" stroke="rgb(115, 191, 118)" stroke-width="1" d="M690.499999448657,143.50000546872616C710.499999448657,143.50000546872616,710.499999448657,143.50000546872616,730.499999448657,143.50000546872616"></path><path id="kity_path_1333" fill="none" stroke="rgb(115, 191, 118)" stroke-width="1" d="M92.49999944865704,548.5000054687262A190,143,0,0,1,282.49999944865704,405.50000546872616"></path><path id="kity_path_1335" fill="none" stroke="rgb(115, 191, 118)" stroke-width="1" d="M410.49999944865704,405.50000546872616C430.49999944865704,405.50000546872616,430.49999944865704,239.50000546872616,450.49999944865704,239.50000546872616"></path><path id="kity_path_1337" fill="none" stroke="rgb(115, 191, 118)" stroke-width="1" d="M544.499999448657,239.50000546872616C564.499999448657,239.50000546872616,564.499999448657,213.50000546872616,584.499999448657,213.50000546872616"></path><path id="kity_path_1339" fill="none" stroke="rgb(115, 191, 118)" stroke-width="1" d="M544.499999448657,239.50000546872616C564.499999448657,239.50000546872616,564.499999448657,265.50000546872616,584.499999448657,265.50000546872616"></path><path id="kity_path_1341" fill="none" stroke="rgb(115, 191, 118)" stroke-width="1" d="M410.49999944865704,405.50000546872616C430.49999944865704,405.50000546872616,430.49999944865704,571.5000054687262,450.49999944865704,571.5000054687262"></path><path id="kity_path_1343" fill="none" stroke="rgb(115, 191, 118)" stroke-width="1" d="M556.499999448657,571.5000054687262C576.499999448657,571.5000054687262,576.499999448657,357.50000546872616,596.499999448657,357.50000546872616"></path><path id="kity_path_1345" fill="none" stroke="rgb(115, 191, 118)" stroke-width="1" d="M743.499999448657,357.50000546872616C763.499999448657,357.50000546872616,763.499999448657,318.50000546872616,783.499999448657,318.50000546872616"></path><path id="kity_path_1347" fill="none" stroke="rgb(115, 191, 118)" stroke-width="1" d="M743.499999448657,357.50000546872616C763.499999448657,357.50000546872616,763.499999448657,396.50000546872616,783.499999448657,396.50000546872616"></path><path id="kity_path_1349" fill="none" stroke="rgb(115, 191, 118)" stroke-width="1" d="M888.499999448657,396.50000546872616C908.499999448657,396.50000546872616,908.499999448657,370.50000546872616,928.499999448657,370.50000546872616"></path><path id="kity_path_1351" fill="none" stroke="rgb(115, 191, 118)" stroke-width="1" d="M888.499999448657,396.50000546872616C908.499999448657,396.50000546872616,908.499999448657,422.50000546872616,928.499999448657,422.50000546872616"></path><path id="kity_path_1353" fill="none" stroke="rgb(115, 191, 118)" stroke-width="1" d="M556.499999448657,571.5000054687262C576.499999448657,571.5000054687262,576.499999448657,571.5000054687262,596.499999448657,571.5000054687262"></path><path id="kity_path_1355" fill="none" stroke="rgb(115, 191, 118)" stroke-width="1" d="M742.499999448657,571.5000054687262C762.499999448657,571.5000054687262,762.499999448657,474.50000546872616,782.499999448657,474.50000546872616"></path><path id="kity_path_1357" fill="none" stroke="rgb(115, 191, 118)" stroke-width="1" d="M742.499999448657,571.5000054687262C766.999999448657,571.5000054687262,766.999999448657,568.5000054687262,791.499999448657,568.5000054687262"></path><path id="kity_path_1359" fill="none" stroke="rgb(115, 191, 118)" stroke-width="1" d="M872.499999448657,568.5000054687262C892.499999448657,568.5000054687262,892.499999448657,542.5000054687262,912.499999448657,542.5000054687262"></path><path id="kity_path_1361" fill="none" stroke="rgb(115, 191, 118)" stroke-width="1" d="M872.499999448657,568.5000054687262C892.499999448657,568.5000054687262,892.499999448657,594.5000054687262,912.499999448657,594.5000054687262"></path><path id="kity_path_1363" fill="none" stroke="rgb(115, 191, 118)" stroke-width="1" d="M954.499999448657,594.5000054687262C974.499999448657,594.5000054687262,974.499999448657,594.5000054687262,994.499999448657,594.5000054687262"></path><path id="kity_path_1365" fill="none" stroke="rgb(115, 191, 118)" stroke-width="1" d="M742.499999448657,571.5000054687262C762.499999448657,571.5000054687262,762.499999448657,669.5000054687262,782.499999448657,669.5000054687262"></path><path id="kity_path_1367" fill="none" stroke="rgb(115, 191, 118)" stroke-width="1" d="M887.499999448657,669.5000054687262C907.499999448657,669.5000054687262,907.499999448657,630.5000054687262,927.499999448657,630.5000054687262"></path><path id="kity_path_1369" fill="none" stroke="rgb(115, 191, 118)" stroke-width="1" d="M1073.499999448657,630.5000054687262C1093.499999448657,630.5000054687262,1093.499999448657,630.5000054687262,1113.499999448657,630.5000054687262"></path><path id="kity_path_1371" fill="none" stroke="rgb(115, 191, 118)" stroke-width="1" d="M887.499999448657,669.5000054687262C907.499999448657,669.5000054687262,907.499999448657,708.5000054687262,927.499999448657,708.5000054687262"></path><path id="kity_path_1373" fill="none" stroke="rgb(115, 191, 118)" stroke-width="1" d="M985.499999448657,708.5000054687262C1005.499999448657,708.5000054687262,1005.499999448657,682.5000054687262,1025.499999448657,682.5000054687262"></path><path id="kity_path_1375" fill="none" stroke="rgb(115, 191, 118)" stroke-width="1" d="M1107.499999448657,682.5000054687262C1127.499999448657,682.5000054687262,1127.499999448657,682.5000054687262,1147.499999448657,682.5000054687262"></path><path id="kity_path_1377" fill="none" stroke="rgb(115, 191, 118)" stroke-width="1" d="M985.499999448657,708.5000054687262C1005.499999448657,708.5000054687262,1005.499999448657,734.5000054687262,1025.499999448657,734.5000054687262"></path><path id="kity_path_1379" fill="none" stroke="rgb(115, 191, 118)" stroke-width="1" d="M556.499999448657,571.5000054687262C576.499999448657,571.5000054687262,576.499999448657,786.5000054687262,596.499999448657,786.5000054687262"></path><path id="kity_path_1381" fill="none" stroke="rgb(115, 191, 118)" stroke-width="1" d="M702.499999448657,786.5000054687262C722.499999448657,786.5000054687262,722.499999448657,786.5000054687262,742.499999448657,786.5000054687262"></path><path id="kity_path_1383" fill="none" stroke="rgb(115, 191, 118)" stroke-width="1" d="M92.49999944865704,548.5000054687262A190,462,0,0,0,282.49999944865704,1010.5000054687262"></path><path id="kity_path_1385" fill="none" stroke="rgb(115, 191, 118)" stroke-width="1" d="M420.49999944865704,1010.5000054687262C440.49999944865704,1010.5000054687262,440.49999944865704,900.5000054687262,460.49999944865704,900.5000054687262"></path><path id="kity_path_1387" fill="none" stroke="rgb(115, 191, 118)" stroke-width="1" d="M553.499999448657,900.5000054687262C573.499999448657,900.5000054687262,573.499999448657,848.5000054687262,593.499999448657,848.5000054687262"></path><path id="kity_path_1389" fill="none" stroke="rgb(115, 191, 118)" stroke-width="1" d="M687.499999448657,848.5000054687262C707.499999448657,848.5000054687262,707.499999448657,848.5000054687262,727.499999448657,848.5000054687262"></path><path id="kity_path_1391" fill="none" stroke="rgb(115, 191, 118)" stroke-width="1" d="M553.499999448657,900.5000054687262C573.499999448657,900.5000054687262,573.499999448657,900.5000054687262,593.499999448657,900.5000054687262"></path><path id="kity_path_1393" fill="none" stroke="rgb(115, 191, 118)" stroke-width="1" d="M686.499999448657,900.5000054687262C706.499999448657,900.5000054687262,706.499999448657,900.5000054687262,726.499999448657,900.5000054687262"></path><path id="kity_path_1395" fill="none" stroke="rgb(115, 191, 118)" stroke-width="1" d="M553.499999448657,900.5000054687262C573.499999448657,900.5000054687262,573.499999448657,952.5000054687262,593.499999448657,952.5000054687262"></path><path id="kity_path_1397" fill="none" stroke="rgb(115, 191, 118)" stroke-width="1" d="M420.49999944865704,1010.5000054687262C440.49999944865704,1010.5000054687262,440.49999944865704,1121.5000054687262,460.49999944865704,1121.5000054687262"></path><path id="kity_path_1399" fill="none" stroke="rgb(115, 191, 118)" stroke-width="1" d="M553.499999448657,1121.5000054687262C573.499999448657,1121.5000054687262,573.499999448657,1043.5000054687262,593.499999448657,1043.5000054687262"></path><path id="kity_path_1401" fill="none" stroke="rgb(115, 191, 118)" stroke-width="1" d="M662.499999448657,1043.5000054687262C682.499999448657,1043.5000054687262,682.499999448657,1004.5000054687262,702.499999448657,1004.5000054687262"></path><path id="kity_path_1403" fill="none" stroke="rgb(115, 191, 118)" stroke-width="1" d="M662.499999448657,1043.5000054687262C682.499999448657,1043.5000054687262,682.499999448657,1082.5000054687262,702.499999448657,1082.5000054687262"></path><path id="kity_path_1405" fill="none" stroke="rgb(115, 191, 118)" stroke-width="1" d="M771.499999448657,1082.5000054687262C791.499999448657,1082.5000054687262,791.499999448657,1056.5000054687262,811.499999448657,1056.5000054687262"></path><path id="kity_path_1407" fill="none" stroke="rgb(115, 191, 118)" stroke-width="1" d="M771.499999448657,1082.5000054687262C791.499999448657,1082.5000054687262,791.499999448657,1108.5000054687262,811.499999448657,1108.5000054687262"></path><path id="kity_path_1409" fill="none" stroke="rgb(115, 191, 118)" stroke-width="1" d="M553.499999448657,1121.5000054687262C573.499999448657,1121.5000054687262,573.499999448657,1199.5000054687262,593.499999448657,1199.5000054687262"></path><path id="kity_path_1411" fill="none" stroke="rgb(115, 191, 118)" stroke-width="1" d="M661.499999448657,1199.5000054687262C681.499999448657,1199.5000054687262,681.499999448657,1160.5000054687262,701.499999448657,1160.5000054687262"></path><path id="kity_path_1413" fill="none" stroke="rgb(115, 191, 118)" stroke-width="1" d="M746.499999448657,1160.5000054687262C766.499999448657,1160.5000054687262,766.499999448657,1160.5000054687262,786.499999448657,1160.5000054687262"></path><path id="kity_path_1415" fill="none" stroke="rgb(115, 191, 118)" stroke-width="1" d="M661.499999448657,1199.5000054687262C681.499999448657,1199.5000054687262,681.499999448657,1238.5000054687262,701.499999448657,1238.5000054687262"></path><path id="kity_path_1417" fill="none" stroke="rgb(115, 191, 118)" stroke-width="1" d="M770.499999448657,1238.5000054687262C789.999999448657,1238.5000054687262,789.999999448657,1216.5000054687262,809.499999448657,1216.5000054687262"></path><path id="kity_path_1419" fill="none" stroke="rgb(115, 191, 118)" stroke-width="1" d="M987.499999448657,1216.5000054687262C1007.499999448657,1216.5000054687262,1007.499999448657,1216.5000054687262,1027.499999448657,1216.5000054687262"></path><path id="kity_path_1421" fill="none" stroke="rgb(115, 191, 118)" stroke-width="1" d="M770.499999448657,1238.5000054687262C790.499999448657,1238.5000054687262,790.499999448657,1264.5000054687262,810.499999448657,1264.5000054687262"></path><path id="kity_path_1423" fill="none" stroke="rgb(115, 191, 118)" stroke-width="1" d="M1011.499999448657,1264.5000054687262C1031.499999448657,1264.5000054687262,1031.499999448657,1264.5000054687262,1051.499999448657,1264.5000054687262"></path></g><g id="minder_node1"><path id="node_outline1" fill="rgb(115, 191, 118)" stroke="rgb(115, 191, 118)" d="M25.499999448657036,528.5000054687262h134a5,5,0,0,1,5,5v30a5,5,0,0,1,-5,5h-134a5,5,0,0,1,-5,-5v-30a5,5,0,0,1,5,-5z" stroke-width="3"></path><g id="node_text1" fill="white"><text id="kity_text_22" text-rendering="inherit" font-size="16" dy=".8em" y="538.1000053018331" x="44.499999448657036">内存管理总结</text></g></g><g id="kity_g_12"><path id="kity_path_13" fill="none" stroke="none" d="M44.499999448657036,548.5000054687262h0v0h0z"></path></g><g id="kity_g_14"><path id="kity_path_15" fill="none" stroke="none" d="M44.499999448657036,548.5000054687262h0v0h0z"></path><path id="kity_path_16" fill="none" stroke="none"></path></g><g id="minder_node163"><g id="node_expander166" style="cursor: pointer;"><path id="kity_path_1591" fill="white" stroke="gray" d="M283.50000639259815,86.49999170005322A6,6,0,1,1,271.50000639259815,86.49999170005322A6,6,0,1,1,283.50000639259815,86.49999170005322"></path><path id="kity_path_1592" fill="none" stroke="gray" d="M273.00000639259815,86.49999170005322L282.00000639259815,86.49999170005322"></path></g><path id="node_outline167" fill="rgb(238, 246, 238)" stroke="rgb(115, 191, 118)" d="M287.50000719726086,73.49999170005322h170a3,3,0,0,1,3,3v20a3,3,0,0,1,-3,3h-170a3,3,0,0,1,-3,-3v-20a3,3,0,0,1,3,-3z" stroke-width="1"></path><g id="node_text167" fill="black"><text id="kity_text_1434" text-rendering="inherit" font-size="14" dy=".8em" y="77.39999173283577" x="304.50000719726086">虚拟内存 与 物理内存</text></g></g><g id="minder_node164"><g id="node_expander162" style="cursor: pointer;" display="none"><path id="kity_path_1579" fill="white" stroke="gray" d="M500.5000128597021,30.49999003112316A6,6,0,1,1,488.5000128597021,30.49999003112316A6,6,0,1,1,500.5000128597021,30.49999003112316"></path><path id="kity_path_1580" fill="none" stroke="gray"></path></g><path id="node_outline163" fill="none" stroke="none" d="M505.50001333653927,19.49999003112316h136a5,5,0,0,1,5,5v12a5,5,0,0,1,-5,5h-136a5,5,0,0,1,-5,-5v-12a5,5,0,0,1,5,-5z"></path><g id="node_text163" fill="black"><text id="kity_text_1425" text-rendering="inherit" font-size="12" dy=".8em" y="22.69999010463556" x="510.50001333653927">虚拟内存 &amp;&amp; 物理内存</text></g></g><g id="minder_node165"><g id="node_expander163" style="cursor: pointer;" display="none"><path id="kity_path_1582" fill="white" stroke="gray" d="M500.5000128597021,82.49999158084393A6,6,0,1,1,488.5000128597021,82.49999158084393A6,6,0,1,1,500.5000128597021,82.49999158084393"></path><path id="kity_path_1583" fill="none" stroke="gray"></path></g><path id="node_outline164" fill="none" stroke="none" d="M505.50001333653927,71.49999158084393h136a5,5,0,0,1,5,5v12a5,5,0,0,1,-5,5h-136a5,5,0,0,1,-5,-5v-12a5,5,0,0,1,5,-5z"></path><g id="node_text164" fill="black"><text id="kity_text_1427" text-rendering="inherit" font-size="12" dy=".8em" y="74.69999165435632" x="510.50001333653927">虚拟地址 &amp;&amp; 物理地址</text></g></g><g id="minder_node166"><g id="node_expander165" style="cursor: pointer;"><path id="kity_path_1588" fill="white" stroke="gray" d="M500.5000128597021,143.4999933987856A6,6,0,1,1,488.5000128597021,143.4999933987856A6,6,0,1,1,500.5000128597021,143.4999933987856"></path><path id="kity_path_1589" fill="none" stroke="gray" d="M490.0000128597021,143.4999933987856L499.0000128597021,143.4999933987856"></path></g><path id="node_outline166" fill="none" stroke="none" d="M505.50001333653927,132.4999933987856h180a5,5,0,0,1,5,5v12a5,5,0,0,1,-5,5h-180a5,5,0,0,1,-5,-5v-12a5,5,0,0,1,5,-5z"></path><g id="node_text166" fill="black"><text id="kity_text_1432" text-rendering="inherit" font-size="12" dy=".8em" y="135.699993472298" x="510.50001333653927">虚拟地址与物理地址的映射方式</text></g></g><g id="minder_node167"><g id="node_expander164" style="cursor: pointer;" display="none"><path id="kity_path_1585" fill="white" stroke="gray" d="M730.5000197142363,143.4999933987856A6,6,0,1,1,718.5000197142363,143.4999933987856A6,6,0,1,1,730.5000197142363,143.4999933987856"></path><path id="kity_path_1586" fill="none" stroke="gray"></path></g><path id="node_outline165" fill="none" stroke="none" d="M735.5000201910734,123.49999339878559h707a5,5,0,0,1,5,5v30a5,5,0,0,1,-5,5h-707a5,5,0,0,1,-5,-5v-30a5,5,0,0,1,5,-5z"></path><g id="node_text165" fill="black"><text id="kity_text_1429" text-rendering="inherit" font-size="12" dy=".8em" y="126.69999347229799" x="740.5000201910734">虚拟内存使用 非连续映射机制（分页），即一个连续的虚拟地址空间可以映射到多个 非连续的物理页框；</text><text id="kity_text_1430" text-rendering="inherit" font-size="12" dy=".8em" y="144.699993472298" x="740.5000201910734">但是在物理内存的管理层面，内核实际分配内存页时，尽量采用连续的页框分配策略（如伙伴系统），以提高性能、满足硬件需求。</text></g></g><g id="minder_node168"><g id="node_expander191" style="cursor: pointer;"><path id="kity_path_1666" fill="white" stroke="gray" d="M283.50000639259815,405.50000120699406A6,6,0,1,1,271.50000639259815,405.50000120699406A6,6,0,1,1,283.50000639259815,405.50000120699406"></path><path id="kity_path_1667" fill="none" stroke="gray" d="M273.00000639259815,405.50000120699406L282.00000639259815,405.50000120699406"></path></g><path id="node_outline192" fill="rgb(238, 246, 238)" stroke="rgb(115, 191, 118)" d="M287.50000719726086,392.50000120699406h120a3,3,0,0,1,3,3v20a3,3,0,0,1,-3,3h-120a3,3,0,0,1,-3,-3v-20a3,3,0,0,1,3,-3z" stroke-width="1"></path><g id="node_text192" fill="black"><text id="kity_text_1484" text-rendering="inherit" font-size="14" dy=".8em" y="396.4000012397766" x="304.50000719726086">物理内存管理</text></g></g><g id="minder_node169"><g id="node_expander169" style="cursor: pointer;"><path id="kity_path_1600" fill="white" stroke="gray" d="M450.500011369586,239.49999625980854A6,6,0,1,1,438.500011369586,239.49999625980854A6,6,0,1,1,450.500011369586,239.49999625980854"></path><path id="kity_path_1601" fill="none" stroke="gray" d="M440.000011369586,239.49999625980854L449.000011369586,239.49999625980854"></path></g><path id="node_outline170" fill="none" stroke="none" d="M455.50001184642315,228.49999625980854h84a5,5,0,0,1,5,5v12a5,5,0,0,1,-5,5h-84a5,5,0,0,1,-5,-5v-12a5,5,0,0,1,5,-5z"></path><g id="node_text170" fill="black"><text id="kity_text_1440" text-rendering="inherit" font-size="12" dy=".8em" y="231.69999633332094" x="460.50001184642315">连续内存管理</text></g></g><g id="minder_node170"><g id="node_expander167" style="cursor: pointer;" display="none"><path id="kity_path_1594" fill="white" stroke="gray" d="M584.5000153630972,213.49999548494816A6,6,0,1,1,572.5000153630972,213.49999548494816A6,6,0,1,1,584.5000153630972,213.49999548494816"></path><path id="kity_path_1595" fill="none" stroke="gray"></path></g><path id="node_outline168" fill="none" stroke="none" d="M589.5000158399343,202.49999548494816h168a5,5,0,0,1,5,5v12a5,5,0,0,1,-5,5h-168a5,5,0,0,1,-5,-5v-12a5,5,0,0,1,5,-5z"></path><g id="node_text168" fill="black"><text id="kity_text_1436" text-rendering="inherit" font-size="12" dy=".8em" y="205.69999555846056" x="594.5000158399343">伙伴算法：解决外部碎片问题</text></g></g><g id="minder_node171"><g id="node_expander168" style="cursor: pointer;" display="none"><path id="kity_path_1597" fill="white" stroke="gray" d="M584.5000153630972,265.4999970346689A6,6,0,1,1,572.5000153630972,265.4999970346689A6,6,0,1,1,584.5000153630972,265.4999970346689"></path><path id="kity_path_1598" fill="none" stroke="gray"></path></g><path id="node_outline169" fill="none" stroke="none" d="M589.5000158399343,254.49999703466892h184a5,5,0,0,1,5,5v12a5,5,0,0,1,-5,5h-184a5,5,0,0,1,-5,-5v-12a5,5,0,0,1,5,-5z"></path><g id="node_text169" fill="black"><text id="kity_text_1438" text-rendering="inherit" font-size="12" dy=".8em" y="257.6999971081813" x="594.5000158399343">SLAB分配器：解决内部碎片问题</text></g></g><g id="minder_node172"><g id="node_expander190" style="cursor: pointer;"><path id="kity_path_1663" fill="white" stroke="gray" d="M450.500011369586,571.5000061541796A6,6,0,1,1,438.500011369586,571.5000061541796A6,6,0,1,1,450.500011369586,571.5000061541796"></path><path id="kity_path_1664" fill="none" stroke="gray" d="M440.000011369586,571.5000061541796L449.000011369586,571.5000061541796"></path></g><path id="node_outline191" fill="none" stroke="none" d="M455.50001184642315,560.5000061541796h96a5,5,0,0,1,5,5v12a5,5,0,0,1,-5,5h-96a5,5,0,0,1,-5,-5v-12a5,5,0,0,1,5,-5z"></path><g id="node_text191" fill="black"><text id="kity_text_1482" text-rendering="inherit" font-size="12" dy=".8em" y="563.700006227692" x="460.50001184642315">非连续内存管理</text></g></g><g id="minder_node173"><g id="node_expander174" style="cursor: pointer;"><path id="kity_path_1615" fill="white" stroke="gray" d="M596.5000157207251,357.4999997764826A6,6,0,1,1,584.5000157207251,357.4999997764826A6,6,0,1,1,596.5000157207251,357.4999997764826"></path><path id="kity_path_1616" fill="none" stroke="gray" d="M586.0000157207251,357.4999997764826L595.0000157207251,357.4999997764826"></path></g><path id="node_outline175" fill="none" stroke="none" d="M601.5000161975622,346.4999997764826h137a5,5,0,0,1,5,5v12a5,5,0,0,1,-5,5h-137a5,5,0,0,1,-5,-5v-12a5,5,0,0,1,5,-5z"></path><g id="node_text175" fill="black"><text id="kity_text_1450" text-rendering="inherit" font-size="12" dy=".8em" y="349.699999849995" x="606.5000161975622">段式内存管理/内存分段</text></g></g><g id="minder_node174"><g id="node_expander170" style="cursor: pointer;" display="none"><path id="kity_path_1603" fill="white" stroke="gray" d="M783.5000212937593,318.499998614192A6,6,0,1,1,771.5000212937593,318.499998614192A6,6,0,1,1,783.5000212937593,318.499998614192"></path><path id="kity_path_1604" fill="none" stroke="gray"></path></g><path id="node_outline171" fill="none" stroke="none" d="M788.5000217705965,307.499998614192h84a5,5,0,0,1,5,5v12a5,5,0,0,1,-5,5h-84a5,5,0,0,1,-5,-5v-12a5,5,0,0,1,5,-5z"></path><g id="node_text171" fill="black"><text id="kity_text_1442" text-rendering="inherit" font-size="12" dy=".8em" y="310.6999986877044" x="793.5000217705965">地址翻译过程</text></g></g><g id="minder_node175"><g id="node_expander173" style="cursor: pointer;"><path id="kity_path_1612" fill="white" stroke="gray" d="M783.5000212937593,396.50000093877316A6,6,0,1,1,771.5000212937593,396.50000093877316A6,6,0,1,1,783.5000212937593,396.50000093877316"></path><path id="kity_path_1613" fill="none" stroke="gray" d="M773.0000212937593,396.50000093877316L782.0000212937593,396.50000093877316"></path></g><path id="node_outline174" fill="none" stroke="none" d="M788.5000217705965,385.50000093877316h95a5,5,0,0,1,5,5v12a5,5,0,0,1,-5,5h-95a5,5,0,0,1,-5,-5v-12a5,5,0,0,1,5,-5z"></path><g id="node_text174" fill="black"><text id="kity_text_1448" text-rendering="inherit" font-size="12" dy=".8em" y="388.70000101228555" x="793.5000217705965">内存分段的问题</text></g></g><g id="minder_node176"><g id="node_expander171" style="cursor: pointer;" display="none"><path id="kity_path_1606" fill="white" stroke="gray" d="M928.5000256150961,370.5000001639128A6,6,0,1,1,916.5000256150961,370.5000001639128A6,6,0,1,1,928.5000256150961,370.5000001639128"></path><path id="kity_path_1607" fill="none" stroke="gray"></path></g><path id="node_outline172" fill="none" stroke="none" d="M933.5000260919333,359.5000001639128h84a5,5,0,0,1,5,5v12a5,5,0,0,1,-5,5h-84a5,5,0,0,1,-5,-5v-12a5,5,0,0,1,5,-5z"></path><g id="node_text172" fill="black"><text id="kity_text_1444" text-rendering="inherit" font-size="12" dy=".8em" y="362.7000002374252" x="938.5000260919333">外部内存碎片</text></g></g><g id="minder_node177"><g id="node_expander172" style="cursor: pointer;" display="none"><path id="kity_path_1609" fill="white" stroke="gray" d="M928.5000256150961,422.50000171363354A6,6,0,1,1,916.5000256150961,422.50000171363354A6,6,0,1,1,928.5000256150961,422.50000171363354"></path><path id="kity_path_1610" fill="none" stroke="gray"></path></g><path id="node_outline173" fill="none" stroke="none" d="M933.5000260919333,411.50000171363354h95a5,5,0,0,1,5,5v12a5,5,0,0,1,-5,5h-95a5,5,0,0,1,-5,-5v-12a5,5,0,0,1,5,-5z"></path><g id="node_text173" fill="black"><text id="kity_text_1446" text-rendering="inherit" font-size="12" dy=".8em" y="414.70000178714594" x="938.5000260919333">内存交换速率慢</text></g></g><g id="minder_node178"><g id="node_expander187" style="cursor: pointer;"><path id="kity_path_1654" fill="white" stroke="gray" d="M596.5000157207251,571.5000061541796A6,6,0,1,1,584.5000157207251,571.5000061541796A6,6,0,1,1,596.5000157207251,571.5000061541796"></path><path id="kity_path_1655" fill="none" stroke="gray" d="M586.0000157207251,571.5000061541796L595.0000157207251,571.5000061541796"></path></g><path id="node_outline188" fill="none" stroke="none" d="M601.5000161975622,560.5000061541796h136a5,5,0,0,1,5,5v12a5,5,0,0,1,-5,5h-136a5,5,0,0,1,-5,-5v-12a5,5,0,0,1,5,-5z"></path><g id="node_text188" fill="black"><text id="kity_text_1476" text-rendering="inherit" font-size="12" dy=".8em" y="563.700006227692" x="606.5000161975622">业式内存管理/内存分页</text></g></g><g id="minder_node179"><g id="node_expander175" style="cursor: pointer;" display="none"><path id="kity_path_1618" fill="white" stroke="gray" d="M782.500021263957,474.5000032633543A6,6,0,1,1,770.500021263957,474.5000032633543A6,6,0,1,1,782.500021263957,474.5000032633543"></path><path id="kity_path_1619" fill="none" stroke="gray"></path></g><path id="node_outline176" fill="none" stroke="none" d="M787.5000217407942,463.5000032633543h84a5,5,0,0,1,5,5v12a5,5,0,0,1,-5,5h-84a5,5,0,0,1,-5,-5v-12a5,5,0,0,1,5,-5z"></path><g id="node_text176" fill="black"><text id="kity_text_1452" text-rendering="inherit" font-size="12" dy=".8em" y="466.7000033368667" x="792.5000217407942">地址翻译过程</text></g></g><g id="minder_node180"><g id="node_expander179" style="cursor: pointer;"><path id="kity_path_1630" fill="white" stroke="gray" d="M791.5000215321779,568.5000060647726A6,6,0,1,1,779.5000215321779,568.5000060647726A6,6,0,1,1,791.5000215321779,568.5000060647726"></path><path id="kity_path_1631" fill="none" stroke="gray" d="M781.0000215321779,568.5000060647726L790.0000215321779,568.5000060647726"></path></g><path id="node_outline180" fill="none" stroke="none" d="M796.5000220090151,557.5000060647726h71a5,5,0,0,1,5,5v12a5,5,0,0,1,-5,5h-71a5,5,0,0,1,-5,-5v-12a5,5,0,0,1,5,-5z"></path><g id="node_text180" fill="black"><text id="kity_text_1460" text-rendering="inherit" font-size="12" dy=".8em" y="560.7000061382851" x="801.5000220090151">优化方案：</text></g></g><g id="minder_node181"><g id="node_expander176" style="cursor: pointer;" display="none"><path id="kity_path_1621" fill="white" stroke="gray" d="M912.5000251382589,542.5000052899122A6,6,0,1,1,900.5000251382589,542.5000052899122A6,6,0,1,1,912.5000251382589,542.5000052899122"></path><path id="kity_path_1622" fill="none" stroke="gray"></path></g><path id="node_outline177" fill="none" stroke="none" d="M917.5000256150961,531.5000052899122h59a5,5,0,0,1,5,5v12a5,5,0,0,1,-5,5h-59a5,5,0,0,1,-5,-5v-12a5,5,0,0,1,5,-5z"></path><g id="node_text177" fill="black"><text id="kity_text_1454" text-rendering="inherit" font-size="12" dy=".8em" y="534.7000053634247" x="922.5000256150961">多级页表</text></g></g><g id="minder_node182"><g id="node_expander178" style="cursor: pointer;"><path id="kity_path_1627" fill="white" stroke="gray" d="M912.5000251382589,594.500006839633A6,6,0,1,1,900.5000251382589,594.500006839633A6,6,0,1,1,912.5000251382589,594.500006839633"></path><path id="kity_path_1628" fill="none" stroke="gray" d="M902.0000251382589,594.500006839633L911.0000251382589,594.500006839633"></path></g><path id="node_outline179" fill="none" stroke="none" d="M917.5000256150961,583.500006839633h32a5,5,0,0,1,5,5v12a5,5,0,0,1,-5,5h-32a5,5,0,0,1,-5,-5v-12a5,5,0,0,1,5,-5z"></path><g id="node_text179" fill="black"><text id="kity_text_1458" text-rendering="inherit" font-size="12" dy=".8em" y="586.7000069131454" x="922.5000256150961">TLB</text></g></g><g id="minder_node183"><g id="node_expander177" style="cursor: pointer;" display="none"><path id="kity_path_1624" fill="white" stroke="gray" d="M994.5000275820494,594.500006839633A6,6,0,1,1,982.5000275820494,594.500006839633A6,6,0,1,1,994.5000275820494,594.500006839633"></path><path id="kity_path_1625" fill="none" stroke="gray"></path></g><path id="node_outline178" fill="none" stroke="none" d="M999.5000280588865,583.500006839633h129a5,5,0,0,1,5,5v12a5,5,0,0,1,-5,5h-129a5,5,0,0,1,-5,-5v-12a5,5,0,0,1,5,-5z"></path><g id="node_text178" fill="black"><text id="kity_text_1456" text-rendering="inherit" font-size="12" dy=".8em" y="586.7000069131454" x="1004.5000280588865">有TLB的地址翻译过程</text></g></g><g id="minder_node184"><g id="node_expander186" style="cursor: pointer;"><path id="kity_path_1651" fill="white" stroke="gray" d="M782.500021263957,669.5000090748072A6,6,0,1,1,770.500021263957,669.5000090748072A6,6,0,1,1,782.500021263957,669.5000090748072"></path><path id="kity_path_1652" fill="none" stroke="gray" d="M772.000021263957,669.5000090748072L781.000021263957,669.5000090748072"></path></g><path id="node_outline187" fill="none" stroke="none" d="M787.5000217407942,658.5000090748072h95a5,5,0,0,1,5,5v12a5,5,0,0,1,-5,5h-95a5,5,0,0,1,-5,-5v-12a5,5,0,0,1,5,-5z"></path><g id="node_text187" fill="black"><text id="kity_text_1474" text-rendering="inherit" font-size="12" dy=".8em" y="661.7000091483196" x="792.5000217407942">内存分页的问题</text></g></g><g id="minder_node185"><g id="node_expander181" style="cursor: pointer;"><path id="kity_path_1636" fill="white" stroke="gray" d="M927.5000255852938,630.5000079125166A6,6,0,1,1,915.5000255852938,630.5000079125166A6,6,0,1,1,927.5000255852938,630.5000079125166"></path><path id="kity_path_1637" fill="none" stroke="gray" d="M917.0000255852938,630.5000079125166L926.0000255852938,630.5000079125166"></path></g><path id="node_outline182" fill="none" stroke="none" d="M932.5000260621309,619.5000079125166h136a5,5,0,0,1,5,5v12a5,5,0,0,1,-5,5h-136a5,5,0,0,1,-5,-5v-12a5,5,0,0,1,5,-5z"></path><g id="node_text182" fill="black"><text id="kity_text_1464" text-rendering="inherit" font-size="12" dy=".8em" y="622.700007986029" x="937.5000260621309">内部内存碎片/内存不够</text></g></g><g id="minder_node186"><g id="node_expander180" style="cursor: pointer;" display="none"><path id="kity_path_1633" fill="white" stroke="gray" d="M1113.5000311285257,630.5000079125166A6,6,0,1,1,1101.5000311285257,630.5000079125166A6,6,0,1,1,1113.5000311285257,630.5000079125166"></path><path id="kity_path_1634" fill="none" stroke="gray"></path></g><path id="node_outline181" fill="none" stroke="none" d="M1118.500031605363,619.5000079125166h59a5,5,0,0,1,5,5v12a5,5,0,0,1,-5,5h-59a5,5,0,0,1,-5,-5v-12a5,5,0,0,1,5,-5z"></path><g id="node_text181" fill="black"><text id="kity_text_1462" text-rendering="inherit" font-size="12" dy=".8em" y="622.700007986029" x="1123.500031605363">换页机制</text></g></g><g id="minder_node187"><g id="node_expander185" style="cursor: pointer;"><path id="kity_path_1648" fill="white" stroke="gray" d="M927.5000255852938,708.5000102370977A6,6,0,1,1,915.5000255852938,708.5000102370977A6,6,0,1,1,927.5000255852938,708.5000102370977"></path><path id="kity_path_1649" fill="none" stroke="gray" d="M917.0000255852938,708.5000102370977L926.0000255852938,708.5000102370977"></path></g><path id="node_outline186" fill="none" stroke="none" d="M932.5000260621309,697.5000102370977h48a5,5,0,0,1,5,5v12a5,5,0,0,1,-5,5h-48a5,5,0,0,1,-5,-5v-12a5,5,0,0,1,5,-5z"></path><g id="node_text186" fill="black"><text id="kity_text_1472" text-rendering="inherit" font-size="12" dy=".8em" y="700.7000103106102" x="937.5000260621309">页缺失</text></g></g><g id="minder_node188"><g id="node_expander183" style="cursor: pointer;"><path id="kity_path_1642" fill="white" stroke="gray" d="M1025.5000285059214,682.5000094622374A6,6,0,1,1,1013.5000285059214,682.5000094622374A6,6,0,1,1,1025.5000285059214,682.5000094622374"></path><path id="kity_path_1643" fill="none" stroke="gray" d="M1015.0000285059214,682.5000094622374L1024.0000285059214,682.5000094622374"></path></g><path id="node_outline184" fill="none" stroke="none" d="M1030.5000289827585,671.5000094622374h72a5,5,0,0,1,5,5v12a5,5,0,0,1,-5,5h-72a5,5,0,0,1,-5,-5v-12a5,5,0,0,1,5,-5z"></path><g id="node_text184" fill="black"><text id="kity_text_1468" text-rendering="inherit" font-size="12" dy=".8em" y="674.7000095357498" x="1035.5000289827585">硬性页缺失</text></g></g><g id="minder_node189"><g id="node_expander182" style="cursor: pointer;" display="none"><path id="kity_path_1639" fill="white" stroke="gray" d="M1147.5000321418047,682.5000094622374A6,6,0,1,1,1135.5000321418047,682.5000094622374A6,6,0,1,1,1147.5000321418047,682.5000094622374"></path><path id="kity_path_1640" fill="none" stroke="gray"></path></g><path id="node_outline183" fill="none" stroke="none" d="M1152.5000326186419,671.5000094622374h119a5,5,0,0,1,5,5v12a5,5,0,0,1,-5,5h-119a5,5,0,0,1,-5,-5v-12a5,5,0,0,1,5,-5z"></path><g id="node_text183" fill="black"><text id="kity_text_1466" text-rendering="inherit" font-size="12" dy=".8em" y="674.7000095357498" x="1157.5000326186419">常见的页面置换算法</text></g></g><g id="minder_node190"><g id="node_expander184" style="cursor: pointer;" display="none"><path id="kity_path_1645" fill="white" stroke="gray" d="M1025.5000285059214,734.5000110119581A6,6,0,1,1,1013.5000285059214,734.5000110119581A6,6,0,1,1,1025.5000285059214,734.5000110119581"></path><path id="kity_path_1646" fill="none" stroke="gray"></path></g><path id="node_outline185" fill="none" stroke="none" d="M1030.5000289827585,723.5000110119581h72a5,5,0,0,1,5,5v12a5,5,0,0,1,-5,5h-72a5,5,0,0,1,-5,-5v-12a5,5,0,0,1,5,-5z"></path><g id="node_text185" fill="black"><text id="kity_text_1470" text-rendering="inherit" font-size="12" dy=".8em" y="726.7000110854706" x="1035.5000289827585">软性页缺失</text></g></g><g id="minder_node191"><g id="node_expander189" style="cursor: pointer;"><path id="kity_path_1660" fill="white" stroke="gray" d="M596.5000157207251,786.5000125616789A6,6,0,1,1,584.5000157207251,786.5000125616789A6,6,0,1,1,596.5000157207251,786.5000125616789"></path><path id="kity_path_1661" fill="none" stroke="gray" d="M586.0000157207251,786.5000125616789L595.0000157207251,786.5000125616789"></path></g><path id="node_outline190" fill="none" stroke="none" d="M601.5000161975622,775.5000125616789h96a5,5,0,0,1,5,5v12a5,5,0,0,1,-5,5h-96a5,5,0,0,1,-5,-5v-12a5,5,0,0,1,5,-5z"></path><g id="node_text190" fill="black"><text id="kity_text_1480" text-rendering="inherit" font-size="12" dy=".8em" y="778.7000126351913" x="606.5000161975622">段业式内存管理</text></g></g><g id="minder_node192"><g id="node_expander188" style="cursor: pointer;" display="none"><path id="kity_path_1657" fill="white" stroke="gray" d="M742.5000200718641,786.5000125616789A6,6,0,1,1,730.5000200718641,786.5000125616789A6,6,0,1,1,742.5000200718641,786.5000125616789"></path><path id="kity_path_1658" fill="none" stroke="gray"></path></g><path id="node_outline189" fill="none" stroke="none" d="M747.5000205487013,775.5000125616789h84a5,5,0,0,1,5,5v12a5,5,0,0,1,-5,5h-84a5,5,0,0,1,-5,-5v-12a5,5,0,0,1,5,-5z"></path><g id="node_text189" fill="black"><text id="kity_text_1478" text-rendering="inherit" font-size="12" dy=".8em" y="778.7000126351913" x="752.5000205487013">地址翻译过程</text></g></g><g id="minder_node193"><g id="node_expander212" style="cursor: pointer;"><path id="kity_path_1729" fill="white" stroke="gray" d="M283.50000639259815,1010.5000192373991A6,6,0,1,1,271.50000639259815,1010.5000192373991A6,6,0,1,1,283.50000639259815,1010.5000192373991"></path><path id="kity_path_1730" fill="none" stroke="gray" d="M273.00000639259815,1010.5000192373991L282.00000639259815,1010.5000192373991"></path></g><path id="node_outline213" fill="rgb(238, 246, 238)" stroke="rgb(115, 191, 118)" d="M287.50000719726086,997.5000192373991h130a3,3,0,0,1,3,3v20a3,3,0,0,1,-3,3h-130a3,3,0,0,1,-3,-3v-20a3,3,0,0,1,3,-3z" stroke-width="1"></path><g id="node_text213" fill="black"><text id="kity_text_1526" text-rendering="inherit" font-size="14" dy=".8em" y="1001.4000192701817" x="304.50000719726086">Linux 内存管理</text></g></g><g id="minder_node194"><g id="node_expander197" style="cursor: pointer;"><path id="kity_path_1684" fill="white" stroke="gray" d="M460.5000116676092,900.5000159591436A6,6,0,1,1,448.5000116676092,900.5000159591436A6,6,0,1,1,460.5000116676092,900.5000159591436"></path><path id="kity_path_1685" fill="none" stroke="gray" d="M450.0000116676092,900.5000159591436L459.0000116676092,900.5000159591436"></path></g><path id="node_outline198" fill="none" stroke="none" d="M465.5000121444464,889.5000159591436h83a5,5,0,0,1,5,5v12a5,5,0,0,1,-5,5h-83a5,5,0,0,1,-5,-5v-12a5,5,0,0,1,5,-5z"></path><g id="node_text198" fill="black"><text id="kity_text_1496" text-rendering="inherit" font-size="12" dy=".8em" y="892.7000160326561" x="470.5000121444464">物理内存空间</text></g></g><g id="minder_node195"><g id="node_expander193" style="cursor: pointer;"><path id="kity_path_1672" fill="white" stroke="gray" d="M593.5000156313181,848.5000144094229A6,6,0,1,1,581.5000156313181,848.5000144094229A6,6,0,1,1,593.5000156313181,848.5000144094229"></path><path id="kity_path_1673" fill="none" stroke="gray" d="M583.0000156313181,848.5000144094229L592.0000156313181,848.5000144094229"></path></g><path id="node_outline194" fill="none" stroke="none" d="M598.5000161081553,837.5000144094229h84a5,5,0,0,1,5,5v12a5,5,0,0,1,-5,5h-84a5,5,0,0,1,-5,-5v-12a5,5,0,0,1,5,-5z"></path><g id="node_text194" fill="black"><text id="kity_text_1488" text-rendering="inherit" font-size="12" dy=".8em" y="840.7000144829353" x="603.5000161081553">外部内存碎片</text></g></g><g id="minder_node196"><g id="node_expander192" style="cursor: pointer;" display="none"><path id="kity_path_1669" fill="white" stroke="gray" d="M727.5000196248293,848.5000144094229A6,6,0,1,1,715.5000196248293,848.5000144094229A6,6,0,1,1,727.5000196248293,848.5000144094229"></path><path id="kity_path_1670" fill="none" stroke="gray"></path></g><path id="node_outline193" fill="none" stroke="none" d="M732.5000201016665,837.5000144094229h60a5,5,0,0,1,5,5v12a5,5,0,0,1,-5,5h-60a5,5,0,0,1,-5,-5v-12a5,5,0,0,1,5,-5z"></path><g id="node_text193" fill="black"><text id="kity_text_1486" text-rendering="inherit" font-size="12" dy=".8em" y="840.7000144829353" x="737.5000201016665">伙伴算法</text></g></g><g id="minder_node197"><g id="node_expander195" style="cursor: pointer;"><path id="kity_path_1678" fill="white" stroke="gray" d="M593.5000156313181,900.5000159591436A6,6,0,1,1,581.5000156313181,900.5000159591436A6,6,0,1,1,593.5000156313181,900.5000159591436"></path><path id="kity_path_1679" fill="none" stroke="gray" d="M583.0000156313181,900.5000159591436L592.0000156313181,900.5000159591436"></path></g><path id="node_outline196" fill="none" stroke="none" d="M598.5000161081553,889.5000159591436h83a5,5,0,0,1,5,5v12a5,5,0,0,1,-5,5h-83a5,5,0,0,1,-5,-5v-12a5,5,0,0,1,5,-5z"></path><g id="node_text196" fill="black"><text id="kity_text_1492" text-rendering="inherit" font-size="12" dy=".8em" y="892.7000160326561" x="603.5000161081553">内部内存碎片</text></g></g><g id="minder_node198"><g id="node_expander194" style="cursor: pointer;" display="none"><path id="kity_path_1675" fill="white" stroke="gray" d="M726.500019595027,900.5000159591436A6,6,0,1,1,714.500019595027,900.5000159591436A6,6,0,1,1,726.500019595027,900.5000159591436"></path><path id="kity_path_1676" fill="none" stroke="gray"></path></g><path id="node_outline195" fill="none" stroke="none" d="M731.5000200718641,889.5000159591436h70a5,5,0,0,1,5,5v12a5,5,0,0,1,-5,5h-70a5,5,0,0,1,-5,-5v-12a5,5,0,0,1,5,-5z"></path><g id="node_text195" fill="black"><text id="kity_text_1490" text-rendering="inherit" font-size="12" dy=".8em" y="892.7000160326561" x="736.5000200718641">slab分配器</text></g></g><g id="minder_node199"><g id="node_expander196" style="cursor: pointer;" display="none"><path id="kity_path_1681" fill="white" stroke="gray" d="M593.5000156313181,952.5000175088644A6,6,0,1,1,581.5000156313181,952.5000175088644A6,6,0,1,1,593.5000156313181,952.5000175088644"></path><path id="kity_path_1682" fill="none" stroke="gray"></path></g><path id="node_outline197" fill="none" stroke="none" d="M598.5000161081553,941.5000175088644h83a5,5,0,0,1,5,5v12a5,5,0,0,1,-5,5h-83a5,5,0,0,1,-5,-5v-12a5,5,0,0,1,5,-5z"></path><g id="node_text197" fill="black"><text id="kity_text_1494" text-rendering="inherit" font-size="12" dy=".8em" y="944.7000175823769" x="603.5000161081553">页框分配原则</text></g></g><g id="minder_node200"><g id="node_expander211" style="cursor: pointer;"><path id="kity_path_1726" fill="white" stroke="gray" d="M460.5000116676092,1121.5000225454569A6,6,0,1,1,448.5000116676092,1121.5000225454569A6,6,0,1,1,460.5000116676092,1121.5000225454569"></path><path id="kity_path_1727" fill="none" stroke="gray" d="M450.0000116676092,1121.5000225454569L459.0000116676092,1121.5000225454569"></path></g><path id="node_outline212" fill="none" stroke="none" d="M465.5000121444464,1110.5000225454569h83a5,5,0,0,1,5,5v12a5,5,0,0,1,-5,5h-83a5,5,0,0,1,-5,-5v-12a5,5,0,0,1,5,-5z"></path><g id="node_text212" fill="black"><text id="kity_text_1524" text-rendering="inherit" font-size="12" dy=".8em" y="1113.7000226189693" x="470.5000121444464">虚拟内存空间</text></g></g><g id="minder_node201"><g id="node_expander202" style="cursor: pointer;"><path id="kity_path_1699" fill="white" stroke="gray" d="M593.5000156313181,1043.5000202208757A6,6,0,1,1,581.5000156313181,1043.5000202208757A6,6,0,1,1,593.5000156313181,1043.5000202208757"></path><path id="kity_path_1700" fill="none" stroke="gray" d="M583.0000156313181,1043.5000202208757L592.0000156313181,1043.5000202208757"></path></g><path id="node_outline203" fill="none" stroke="none" d="M598.5000161081553,1032.5000202208757h59a5,5,0,0,1,5,5v12a5,5,0,0,1,-5,5h-59a5,5,0,0,1,-5,-5v-12a5,5,0,0,1,5,-5z"></path><g id="node_text203" fill="black"><text id="kity_text_1506" text-rendering="inherit" font-size="12" dy=".8em" y="1035.7000202943882" x="603.5000161081553">用户空间</text></g></g><g id="minder_node202"><g id="node_expander198" style="cursor: pointer;" display="none"><path id="kity_path_1687" fill="white" stroke="gray" d="M702.5000188797712,1004.5000190585852A6,6,0,1,1,690.5000188797712,1004.5000190585852A6,6,0,1,1,702.5000188797712,1004.5000190585852"></path><path id="kity_path_1688" fill="none" stroke="gray"></path></g><path id="node_outline199" fill="none" stroke="none" d="M707.5000193566084,993.5000190585852h36a5,5,0,0,1,5,5v12a5,5,0,0,1,-5,5h-36a5,5,0,0,1,-5,-5v-12a5,5,0,0,1,5,-5z"></path><g id="node_text199" fill="black"><text id="kity_text_1498" text-rendering="inherit" font-size="12" dy=".8em" y="996.7000191320976" x="712.5000193566084">分段</text></g></g><g id="minder_node203"><g id="node_expander201" style="cursor: pointer;"><path id="kity_path_1696" fill="white" stroke="gray" d="M702.5000188797712,1082.5000213831663A6,6,0,1,1,690.5000188797712,1082.5000213831663A6,6,0,1,1,702.5000188797712,1082.5000213831663"></path><path id="kity_path_1697" fill="none" stroke="gray" d="M692.0000188797712,1082.5000213831663L701.0000188797712,1082.5000213831663"></path></g><path id="node_outline202" fill="none" stroke="none" d="M707.5000193566084,1071.5000213831663h59a5,5,0,0,1,5,5v12a5,5,0,0,1,-5,5h-59a5,5,0,0,1,-5,-5v-12a5,5,0,0,1,5,-5z"></path><g id="node_text202" fill="black"><text id="kity_text_1504" text-rendering="inherit" font-size="12" dy=".8em" y="1074.7000214566788" x="712.5000193566084">内存分配</text></g></g><g id="minder_node204"><g id="node_expander199" style="cursor: pointer;" display="none"><path id="kity_path_1690" fill="white" stroke="gray" d="M811.5000221282244,1056.500020608306A6,6,0,1,1,799.5000221282244,1056.500020608306A6,6,0,1,1,811.5000221282244,1056.500020608306"></path><path id="kity_path_1691" fill="none" stroke="gray"></path></g><path id="node_outline200" fill="none" stroke="none" d="M816.5000226050615,1045.500020608306h101a5,5,0,0,1,5,5v12a5,5,0,0,1,-5,5h-101a5,5,0,0,1,-5,-5v-12a5,5,0,0,1,5,-5z"></path><g id="node_text200" fill="black"><text id="kity_text_1500" text-rendering="inherit" font-size="12" dy=".8em" y="1048.7000206818184" x="821.5000226050615">malloc &lt; 128KB</text></g></g><g id="minder_node205"><g id="node_expander200" style="cursor: pointer;" display="none"><path id="kity_path_1693" fill="white" stroke="gray" d="M811.5000221282244,1108.5000221580267A6,6,0,1,1,799.5000221282244,1108.5000221580267A6,6,0,1,1,811.5000221282244,1108.5000221580267"></path><path id="kity_path_1694" fill="none" stroke="gray"></path></g><path id="node_outline201" fill="none" stroke="none" d="M816.5000226050615,1097.5000221580267h110a5,5,0,0,1,5,5v12a5,5,0,0,1,-5,5h-110a5,5,0,0,1,-5,-5v-12a5,5,0,0,1,5,-5z"></path><g id="node_text201" fill="black"><text id="kity_text_1502" text-rendering="inherit" font-size="12" dy=".8em" y="1100.7000222315392" x="821.5000226050615">malloc &gt;= 128KB</text></g></g><g id="minder_node206"><g id="node_expander210" style="cursor: pointer;"><path id="kity_path_1723" fill="white" stroke="gray" d="M593.5000156313181,1199.500024870038A6,6,0,1,1,581.5000156313181,1199.500024870038A6,6,0,1,1,593.5000156313181,1199.500024870038"></path><path id="kity_path_1724" fill="none" stroke="gray" d="M583.0000156313181,1199.500024870038L592.0000156313181,1199.500024870038"></path></g><path id="node_outline211" fill="none" stroke="none" d="M598.5000161081553,1188.500024870038h58a5,5,0,0,1,5,5v12a5,5,0,0,1,-5,5h-58a5,5,0,0,1,-5,-5v-12a5,5,0,0,1,5,-5z"></path><g id="node_text211" fill="black"><text id="kity_text_1522" text-rendering="inherit" font-size="12" dy=".8em" y="1191.7000249435505" x="603.5000161081553">内核空间</text></g></g><g id="minder_node207"><g id="node_expander204" style="cursor: pointer;"><path id="kity_path_1705" fill="white" stroke="gray" d="M701.5000188499689,1160.5000237077475A6,6,0,1,1,689.5000188499689,1160.5000237077475A6,6,0,1,1,701.5000188499689,1160.5000237077475"></path><path id="kity_path_1706" fill="none" stroke="gray" d="M691.0000188499689,1160.5000237077475L700.0000188499689,1160.5000237077475"></path></g><path id="node_outline205" fill="none" stroke="none" d="M706.5000193268061,1149.5000237077475h35a5,5,0,0,1,5,5v12a5,5,0,0,1,-5,5h-35a5,5,0,0,1,-5,-5v-12a5,5,0,0,1,5,-5z"></path><g id="node_text205" fill="black"><text id="kity_text_1510" text-rendering="inherit" font-size="12" dy=".8em" y="1152.70002378126" x="711.5000193268061">分区</text></g></g><g id="minder_node208"><g id="node_expander203" style="cursor: pointer;" display="none"><path id="kity_path_1702" fill="white" stroke="gray" d="M786.5000213831663,1160.5000237077475A6,6,0,1,1,774.5000213831663,1160.5000237077475A6,6,0,1,1,786.5000213831663,1160.5000237077475"></path><path id="kity_path_1703" fill="none" stroke="gray"></path></g><path id="node_outline204" fill="none" stroke="none" d="M791.5000218600035,1149.5000237077475h191a5,5,0,0,1,5,5v12a5,5,0,0,1,-5,5h-191a5,5,0,0,1,-5,-5v-12a5,5,0,0,1,5,-5z"></path><g id="node_text204" fill="black"><text id="kity_text_1508" text-rendering="inherit" font-size="12" dy=".8em" y="1152.70002378126" x="796.5000218600035">物理内存空间 与&#xa0; 内核空间的映射</text></g></g><g id="minder_node209"><g id="node_expander209" style="cursor: pointer;"><path id="kity_path_1720" fill="white" stroke="gray" d="M701.5000188499689,1238.5000260323286A6,6,0,1,1,689.5000188499689,1238.5000260323286A6,6,0,1,1,701.5000188499689,1238.5000260323286"></path><path id="kity_path_1721" fill="none" stroke="gray" d="M691.0000188499689,1238.5000260323286L700.0000188499689,1238.5000260323286"></path></g><path id="node_outline210" fill="none" stroke="none" d="M706.5000193268061,1227.5000260323286h59a5,5,0,0,1,5,5v12a5,5,0,0,1,-5,5h-59a5,5,0,0,1,-5,-5v-12a5,5,0,0,1,5,-5z"></path><g id="node_text210" fill="black"><text id="kity_text_1520" text-rendering="inherit" font-size="12" dy=".8em" y="1230.700026105841" x="711.5000193268061">内存分配</text></g></g><g id="minder_node210"><g id="node_expander206" style="cursor: pointer;"><path id="kity_path_1711" fill="white" stroke="gray" d="M809.5000220686197,1216.5000253766775A6,6,0,1,1,797.5000220686197,1216.5000253766775A6,6,0,1,1,809.5000220686197,1216.5000253766775"></path><path id="kity_path_1712" fill="none" stroke="gray" d="M799.0000220686197,1216.5000253766775L808.0000220686197,1216.5000253766775"></path></g><path id="node_outline207" fill="none" stroke="none" d="M814.5000225454569,1205.5000253766775h168a5,5,0,0,1,5,5v12a5,5,0,0,1,-5,5h-168a5,5,0,0,1,-5,-5v-12a5,5,0,0,1,5,-5z"></path><g id="node_text207" fill="black"><text id="kity_text_1514" text-rendering="inherit" font-size="12" dy=".8em" y="1208.70002545019" x="819.5000225454569">直接映射区：kmalloc 小对象</text></g></g><g id="minder_node211"><g id="node_expander205" style="cursor: pointer;" display="none"><path id="kity_path_1708" fill="white" stroke="gray" d="M1027.500028565526,1216.5000253766775A6,6,0,1,1,1015.500028565526,1216.5000253766775A6,6,0,1,1,1027.500028565526,1216.5000253766775"></path><path id="kity_path_1709" fill="none" stroke="gray"></path></g><path id="node_outline206" fill="none" stroke="none" d="M1032.5000290423632,1205.5000253766775h70a5,5,0,0,1,5,5v12a5,5,0,0,1,-5,5h-70a5,5,0,0,1,-5,-5v-12a5,5,0,0,1,5,-5z"></path><g id="node_text206" fill="black"><text id="kity_text_1512" text-rendering="inherit" font-size="12" dy=".8em" y="1208.70002545019" x="1037.5000290423632">slab分配器</text></g></g><g id="minder_node212"><g id="node_expander208" style="cursor: pointer;"><path id="kity_path_1717" fill="white" stroke="gray" d="M810.500022098422,1264.500026807189A6,6,0,1,1,798.500022098422,1264.500026807189A6,6,0,1,1,810.500022098422,1264.500026807189"></path><path id="kity_path_1718" fill="none" stroke="gray" d="M800.000022098422,1264.500026807189L809.000022098422,1264.500026807189"></path></g><path id="node_outline209" fill="none" stroke="none" d="M815.5000225752592,1253.500026807189h191a5,5,0,0,1,5,5v12a5,5,0,0,1,-5,5h-191a5,5,0,0,1,-5,-5v-12a5,5,0,0,1,5,-5z"></path><g id="node_text209" fill="black"><text id="kity_text_1518" text-rendering="inherit" font-size="12" dy=".8em" y="1256.7000268807014" x="820.5000225752592">动态内存映射区：vmalloc 大对象</text></g></g><g id="minder_node213"><g id="node_expander207" style="cursor: pointer;" display="none"><path id="kity_path_1714" fill="white" stroke="gray" d="M1051.5000292807817,1264.500026807189A6,6,0,1,1,1039.5000292807817,1264.500026807189A6,6,0,1,1,1051.5000292807817,1264.500026807189"></path><path id="kity_path_1715" fill="none" stroke="gray"></path></g><path id="node_outline208" fill="none" stroke="none" d="M1056.500029757619,1253.500026807189h59a5,5,0,0,1,5,5v12a5,5,0,0,1,-5,5h-59a5,5,0,0,1,-5,-5v-12a5,5,0,0,1,5,-5z"></path><g id="node_text208" fill="black"><text id="kity_text_1516" text-rendering="inherit" font-size="12" dy=".8em" y="1256.7000268807014" x="1061.500029757619">内核页表</text></g></g></g></g></svg>